<svg data-name="Layer 1" viewBox="0 0 64 64" xmlns="http://www.w3.org/2000/svg"><path d="M56.988 19.848 55.04 7.186A2.983 2.983 0 0 0 56 5V3a3.003 3.003 0 0 0-3-3H11a3.003 3.003 0 0 0-3 3v2a2.983 2.983 0 0 0 .96 2.186L7.012 19.848A.991.991 0 0 0 7 20v41a3.003 3.003 0 0 0 3 3h44a3.003 3.003 0 0 0 3-3V20a.991.991 0 0 0-.012-.152ZM10 3a1 1 0 0 1 1-1h42a1 1 0 0 1 1 1v2a1 1 0 0 1-1 1H35V4a1 1 0 0 0-1-1h-4a1 1 0 0 0-1 1v2H11a1 1 0 0 1-1-1Zm23 2v6h-2V5Zm22 56a1 1 0 0 1-1 1H10a1 1 0 0 1-1-1V20.077L10.858 8H29v4a1 1 0 0 0 1 1h4a1 1 0 0 0 1-1V8h18.142L55 20.077ZM28 38v1a1 1 0 0 1-2 0v-1a1 1 0 0 1 2 0Zm17.977 6.544a13.984 13.984 0 0 0-27.954 0 3.964 3.964 0 0 0-.023 6.9V53a4 4 0 0 0 4 4h20a4 4 0 0 0 4-4v-1.556a3.964 3.964 0 0 0-.023-6.9ZM31.775 33a12.01 12.01 0 0 1 11.949 11H19.825a12.01 12.01 0 0 1 11.95-11ZM42 55H22a2 2 0 0 1-2-2v-1h24v1a2 2 0 0 1-2 2Zm1.775-5h-24a2 2 0 1 1 0-4h24a2 2 0 0 1 0 4ZM38 38v1a1 1 0 0 1-2 0v-1a1 1 0 0 1 2 0Zm-5 1v1a1 1 0 0 1-2 0v-1a1 1 0 0 1 2 0Z" fill="#ffffff" class="fill-000000"></path></svg>